{
  "accessors": [
    {
      "bufferView": 2,
      "componentType": 5126,
      "count": 65226,
      "max": [
        0.77982604503631592,
        0.92512702941894531,
        2.0840508937835693
      ],
      "min": [
        0,
        0,
        0
      ],
      "type": "VEC3"
    },
    {
      "bufferView": 2,
      "byteOffset": 782712,
      "componentType": 5126,
      "count": 65226,
      "max": [
        0.99999773502349854,
        0.99998414516448975,
        0.99984848499298096
      ],
      "min": [
        -0.99999576807022095,
        -0.99998414516448975,
        -0.99996447563171387
      ],
      "type": "VEC3"
    },
    {
      "bufferView": 3,
      "componentType": 5126,
      "count": 65226,
      "max": [
        0.9999929666519165,
        0.99923360347747803,
        0.98640543222427368,
        1
      ],
      "min": [
        -0.99999958276748657,
        -0.99997717142105103,
        -0.997963547706604,
        -1
      ],
      "type": "VEC4"
    },
    {
      "bufferView": 1,
      "componentType": 5126,
      "count": 65226,
      "max": [
        0.99259799718856812,
        0.99862498044967651
      ],
      "min": [
        0.0014990000054240227,
        0.002997000003233552
      ],
      "type": "VEC2"
    },
    {
      "bufferView": 0,
      "componentType": 5125,
      "count": 359274,
      "max": [
        65225
      ],
      "min": [
        0
      ],
      "type": "SCALAR"
    }
  ],
  "asset": {
    "extras": {
      "author": "The Cuming Museum (https://sketchfab.com/cumingmuseum)",
      "license": "CC-BY-4.0 (http://creativecommons.org/licenses/by/4.0/)",
      "source": "https://sketchfab.com/models/a0a7d67b45a4488584d8e410bbaa3d65",
      "title": "Maori Nguru (nose flute)"
    },
    "generator": "Sketchfab-3.19.4",
    "version": "2.0"
  },
  "bufferViews": [
    {
      "buffer": 0,
      "byteLength": 1437096,
      "byteOffset": 0,
      "name": "floatBufferViews",
      "target": 34963
    },
    {
      "buffer": 0,
      "byteLength": 521808,
      "byteOffset": 1437096,
      "byteStride": 8,
      "name": "floatBufferViews",
      "target": 34962
    },
    {
      "buffer": 0,
      "byteLength": 1565424,
      "byteOffset": 1958904,
      "byteStride": 12,
      "name": "floatBufferViews",
      "target": 34962
    },
    {
      "buffer": 0,
      "byteLength": 1043616,
      "byteOffset": 3524328,
      "byteStride": 16,
      "name": "floatBufferViews",
      "target": 34962
    }
  ],
  "buffers": [
    {
      "byteLength": 4567944,
      "uri": "scene.bin"
    }
  ],
  "images": [
    {
      "uri": "textures/material_0_metallicRoughness.png"
    },
    {
      "uri": "textures/material_0_baseColor.jpeg"
    }
  ],
  "materials": [
    {
      "doubleSided": true,
      "emissiveFactor": [
        0,
        0,
        0
      ],
      "name": "material_0",
      "occlusionTexture": {
        "index": 0,
        "strength": 0.51000000000000001,
        "texCoord": 0
      },
      "pbrMetallicRoughness": {
        "baseColorFactor": [
          1,
          1,
          1,
          1
        ],
        "baseColorTexture": {
          "index": 1,
          "texCoord": 0
        },
        "metallicFactor": 0,
        "roughnessFactor": 0.45000000000000001
      }
    }
  ],
  "meshes": [
    {
      "primitives": [
        {
          "attributes": {
            "NORMAL": 1,
            "POSITION": 0,
            "TANGENT": 2,
            "TEXCOORD_0": 3
          },
          "indices": 4,
          "material": 0,
          "mode": 4
        }
      ]
    }
  ],
  "nodes": [
    {
      "children": [
        1
      ],
      "name": "RootNode (gltf orientation matrix)",
      "rotation": [
        -0.70710678118654746,
        -0,
        -0,
        0.70710678118654757
      ]
    },
    {
      "children": [
        2
      ],
      "matrix": [
        0.99783945083618164,
        0.053378216922283173,
        -0.038304656744003296,
        0,
        0,
        0.58302432298660278,
        0.8124547004699707,
        0,
        0.065699927508831024,
        -0.81069934368133545,
        0.58176463842391968,
        0,
        -0.037007328122854233,
        -2.6429402828216553,
        6.2749662399291992,
        1
      ],
      "name": "RootNode (model correction matrix)"
    },
    {
      "children": [
        3
      ],
      "matrix": [
        1,
        0,
        0,
        0,
        0,
        1,
        0,
        0,
        0,
        0,
        1,
        0,
        0.21789099276065826,
        -7.8571248054504395,
        -0.45875900983810425,
        1
      ],
      "name": "bone-flute.obj.cleaner.gles"
    },
    {
      "mesh": 0,
      "name": ""
    }
  ],
  "samplers": [
    {
      "magFilter": 9729,
      "minFilter": 9987,
      "wrapS": 10497,
      "wrapT": 10497
    }
  ],
  "scene": 0,
  "scenes": [
    {
      "name": "OSG_Scene",
      "nodes": [
        0
      ]
    }
  ],
  "textures": [
    {
      "sampler": 0,
      "source": 0
    },
    {
      "sampler": 0,
      "source": 1
    }
  ]
}

