{
  "accessors": [
    {
      "bufferView": 2,
      "componentType": 5126,
      "count": 34462,
      "max": [
        0.88419997692108154,
        -0.33709999918937683,
        1.3550000190734863
      ],
      "min": [
        0.44200000166893005,
        -0.76649999618530273,
        0.22429999709129333
      ],
      "type": "VEC3"
    },
    {
      "bufferView": 2,
      "byteOffset": 413544,
      "componentType": 5126,
      "count": 34462,
      "max": [
        1,
        1,
        0.99989998340606689
      ],
      "min": [
        -1,
        -0.99995005130767822,
        -1
      ],
      "type": "VEC3"
    },
    {
      "bufferView": 3,
      "componentType": 5126,
      "count": 34462,
      "max": [
        0.9999929666519165,
        0.99999403953552246,
        1,
        1
      ],
      "min": [
        -0.99983799457550049,
        -0.99999386072158813,
        -0.99985980987548828,
        -1
      ],
      "type": "VEC4"
    },
    {
      "bufferView": 1,
      "componentType": 5126,
      "count": 34462,
      "max": [
        0.53219002485275269,
        0.99753999710083008
      ],
      "min": [
        0.002460000105202198,
        0.46889001131057739
      ],
      "type": "VEC2"
    },
    {
      "bufferView": 0,
      "componentType": 5125,
      "count": 149997,
      "max": [
        34461
      ],
      "min": [
        0
      ],
      "type": "SCALAR"
    }
  ],
  "asset": {
    "extras": {
      "author": "jerknose (https://sketchfab.com/jerknose)",
      "license": "CC-BY-4.0 (http://creativecommons.org/licenses/by/4.0/)",
      "source": "https://sketchfab.com/models/f0d9716dc2e5447397174d3bafa1832e",
      "title": "no12"
    },
    "generator": "Sketchfab-3.23.4",
    "version": "2.0"
  },
  "bufferViews": [
    {
      "buffer": 0,
      "byteLength": 599988,
      "byteOffset": 0,
      "name": "floatBufferViews",
      "target": 34963
    },
    {
      "buffer": 0,
      "byteLength": 275696,
      "byteOffset": 599988,
      "byteStride": 8,
      "name": "floatBufferViews",
      "target": 34962
    },
    {
      "buffer": 0,
      "byteLength": 827088,
      "byteOffset": 875684,
      "byteStride": 12,
      "name": "floatBufferViews",
      "target": 34962
    },
    {
      "buffer": 0,
      "byteLength": 551392,
      "byteOffset": 1702772,
      "byteStride": 16,
      "name": "floatBufferViews",
      "target": 34962
    }
  ],
  "buffers": [
    {
      "byteLength": 2254164,
      "uri": "scene.bin"
    }
  ],
  "extensionsUsed": [
    "KHR_materials_unlit"
  ],
  "images": [
    {
      "uri": "textures/material0_baseColor.jpeg"
    }
  ],
  "materials": [
    {
      "doubleSided": true,
      "emissiveFactor": [
        0,
        0,
        0
      ],
      "extensions": {
        "KHR_materials_unlit": {}
      },
      "name": "material0",
      "pbrMetallicRoughness": {
        "baseColorFactor": [
          1,
          1,
          1,
          1
        ],
        "baseColorTexture": {
          "index": 0,
          "texCoord": 0
        },
        "metallicFactor": 0,
        "roughnessFactor": 1
      }
    }
  ],
  "meshes": [
    {
      "primitives": [
        {
          "attributes": {
            "NORMAL": 1,
            "POSITION": 0,
            "TANGENT": 2,
            "TEXCOORD_0": 3
          },
          "indices": 4,
          "material": 0,
          "mode": 4
        }
      ]
    }
  ],
  "nodes": [
    {
      "children": [
        1
      ],
      "name": "RootNode (gltf orientation matrix)",
      "rotation": [
        -0.70710678118654746,
        -0,
        -0,
        0.70710678118654757
      ]
    },
    {
      "children": [
        2
      ],
      "matrix": [
        0.999988853931427,
        0.0047225248999893665,
        0,
        0,
        0.0047225248999893665,
        -0.999988853931427,
        0,
        0,
        0,
        0,
        -1,
        0,
        0.0026132874190807343,
        -1.1067268848419189,
        1.5793007612228394,
        1
      ],
      "name": "RootNode (model correction matrix)"
    },
    {
      "children": [
        3
      ],
      "name": "Model.obj.cleaner.materialmerger.gles"
    },
    {
      "mesh": 0,
      "name": ""
    }
  ],
  "samplers": [
    {
      "magFilter": 9729,
      "minFilter": 9987,
      "wrapS": 10497,
      "wrapT": 10497
    }
  ],
  "scene": 0,
  "scenes": [
    {
      "name": "OSG_Scene",
      "nodes": [
        0
      ]
    }
  ],
  "textures": [
    {
      "sampler": 0,
      "source": 0
    }
  ]
}

