{
  "accessors": [
    {
      "bufferView": 2,
      "componentType": 5126,
      "count": 65532,
      "max": [
        30.855100631713867,
        -5.422299861907959,
        31.046699523925781
      ],
      "min": [
        -15.684800148010254,
        -12.069399833679199,
        18.457799911499023
      ],
      "type": "VEC3"
    },
    {
      "bufferView": 2,
      "byteOffset": 786384,
      "componentType": 5126,
      "count": 65532,
      "max": [
        0.99997353553771973,
        0.99999666213989258,
        0.99974232912063599
      ],
      "min": [
        -0.97301483154296875,
        -0.99999880790710449,
        -0.99997329711914062
      ],
      "type": "VEC3"
    },
    {
      "bufferView": 3,
      "componentType": 5126,
      "count": 65532,
      "max": [
        0.9999966025352478,
        0.99999338388442993,
        0.9999815821647644,
        1
      ],
      "min": [
        -0.99994313716888428,
        -0.99998950958251953,
        -0.99998551607131958,
        -1
      ],
      "type": "VEC4"
    },
    {
      "bufferView": 1,
      "componentType": 5126,
      "count": 65532,
      "max": [
        0.98879998922348022,
        0.99659997224807739
      ],
      "min": [
        0.0059000002220273018,
        0.0037000000011175871
      ],
      "type": "VEC2"
    },
    {
      "bufferView": 0,
      "componentType": 5125,
      "count": 248958,
      "max": [
        65531
      ],
      "min": [
        0
      ],
      "type": "SCALAR"
    },
    {
      "bufferView": 2,
      "byteOffset": 1572768,
      "componentType": 5126,
      "count": 65532,
      "max": [
        1.1521999835968018,
        -4.8645000457763672,
        29.224300384521484
      ],
      "min": [
        -32.532100677490234,
        -13.446200370788574,
        7.6648998260498047
      ],
      "type": "VEC3"
    },
    {
      "bufferView": 2,
      "byteOffset": 2359152,
      "componentType": 5126,
      "count": 65532,
      "max": [
        0.99974459409713745,
        0.99998533725738525,
        0.99990737438201904
      ],
      "min": [
        -0.99991452693939209,
        -0.99998700618743896,
        -0.99999320507049561
      ],
      "type": "VEC3"
    },
    {
      "bufferView": 3,
      "byteOffset": 1048512,
      "componentType": 5126,
      "count": 65532,
      "max": [
        0.99989235401153564,
        0.99999320507049561,
        0.99992603063583374,
        1
      ],
      "min": [
        -0.99998939037322998,
        -0.99998724460601807,
        -0.99995237588882446,
        -1
      ],
      "type": "VEC4"
    },
    {
      "bufferView": 1,
      "byteOffset": 524256,
      "componentType": 5126,
      "count": 65532,
      "max": [
        0.99400001764297485,
        0.99610000848770142
      ],
      "min": [
        0.0040000001899898052,
        0.0037000000011175871
      ],
      "type": "VEC2"
    },
    {
      "bufferView": 0,
      "byteOffset": 995832,
      "componentType": 5125,
      "count": 268170,
      "max": [
        65531
      ],
      "min": [
        0
      ],
      "type": "SCALAR"
    },
    {
      "bufferView": 2,
      "byteOffset": 3145536,
      "componentType": 5126,
      "count": 43889,
      "max": [
        30.855100631713867,
        -4.8645000457763672,
        30.809600830078125
      ],
      "min": [
        -32.533199310302734,
        -13.444199562072754,
        4.5181999206542969
      ],
      "type": "VEC3"
    },
    {
      "bufferView": 2,
      "byteOffset": 3672204,
      "componentType": 5126,
      "count": 43889,
      "max": [
        0.99994945526123047,
        0.99999856948852539,
        0.99983698129653931
      ],
      "min": [
        -0.99991452693939209,
        -0.9999929666519165,
        -0.99999320507049561
      ],
      "type": "VEC3"
    },
    {
      "bufferView": 3,
      "byteOffset": 2097024,
      "componentType": 5126,
      "count": 43889,
      "max": [
        0.9995574951171875,
        0.99997615814208984,
        0.99986720085144043,
        1
      ],
      "min": [
        -0.99997872114181519,
        -0.99999517202377319,
        -0.99997925758361816,
        -1
      ],
      "type": "VEC4"
    },
    {
      "bufferView": 1,
      "byteOffset": 1048512,
      "componentType": 5126,
      "count": 43889,
      "max": [
        0.98909997940063477,
        0.99610000848770142
      ],
      "min": [
        0.0037000000011175871,
        0.0038000000640749931
      ],
      "type": "VEC2"
    },
    {
      "bufferView": 0,
      "byteOffset": 2068512,
      "componentType": 5125,
      "count": 167658,
      "max": [
        43888
      ],
      "min": [
        0
      ],
      "type": "SCALAR"
    }
  ],
  "asset": {
    "extras": {
      "author": "Arms Museum (https://sketchfab.com/ArmsMuseum)",
      "license": "CC-BY-NC-4.0 (http://creativecommons.org/licenses/by-nc/4.0/)",
      "source": "https://sketchfab.com/models/792ca024195d4292829d8d0b304ced30",
      "title": "Flintlock Pistol"
    },
    "generator": "Sketchfab-3.19.6",
    "version": "2.0"
  },
  "bufferViews": [
    {
      "buffer": 0,
      "byteLength": 2739144,
      "byteOffset": 0,
      "name": "floatBufferViews",
      "target": 34963
    },
    {
      "buffer": 0,
      "byteLength": 1399624,
      "byteOffset": 2739144,
      "byteStride": 8,
      "name": "floatBufferViews",
      "target": 34962
    },
    {
      "buffer": 0,
      "byteLength": 4198872,
      "byteOffset": 4138768,
      "byteStride": 12,
      "name": "floatBufferViews",
      "target": 34962
    },
    {
      "buffer": 0,
      "byteLength": 2799248,
      "byteOffset": 8337640,
      "byteStride": 16,
      "name": "floatBufferViews",
      "target": 34962
    }
  ],
  "buffers": [
    {
      "byteLength": 11136888,
      "uri": "scene.bin"
    }
  ],
  "images": [
    {
      "uri": "textures/material_0_metallicRoughness.png"
    },
    {
      "uri": "textures/material_0_normal.jpeg"
    },
    {
      "uri": "textures/material_0_baseColor.jpeg"
    }
  ],
  "materials": [
    {
      "doubleSided": true,
      "emissiveFactor": [
        0,
        0,
        0
      ],
      "name": "material_0",
      "normalTexture": {
        "index": 1,
        "scale": 1,
        "texCoord": 0
      },
      "occlusionTexture": {
        "index": 0,
        "strength": 0.68999999999999995,
        "texCoord": 0
      },
      "pbrMetallicRoughness": {
        "baseColorFactor": [
          1,
          1,
          1,
          1
        ],
        "baseColorTexture": {
          "index": 2,
          "texCoord": 0
        },
        "metallicFactor": 0,
        "roughnessFactor": 0.37
      }
    }
  ],
  "meshes": [
    {
      "primitives": [
        {
          "attributes": {
            "NORMAL": 1,
            "POSITION": 0,
            "TANGENT": 2,
            "TEXCOORD_0": 3
          },
          "indices": 4,
          "material": 0,
          "mode": 4
        }
      ]
    },
    {
      "primitives": [
        {
          "attributes": {
            "NORMAL": 6,
            "POSITION": 5,
            "TANGENT": 7,
            "TEXCOORD_0": 8
          },
          "indices": 9,
          "material": 0,
          "mode": 4
        }
      ]
    },
    {
      "primitives": [
        {
          "attributes": {
            "NORMAL": 11,
            "POSITION": 10,
            "TANGENT": 12,
            "TEXCOORD_0": 13
          },
          "indices": 14,
          "material": 0,
          "mode": 4
        }
      ]
    }
  ],
  "nodes": [
    {
      "children": [
        1
      ],
      "name": "RootNode (gltf orientation matrix)",
      "rotation": [
        -0.70710678118654746,
        -0,
        -0,
        0.70710678118654757
      ]
    },
    {
      "children": [
        2
      ],
      "matrix": [
        0.99937617778778076,
        0.02391725592315197,
        0.025986064225435257,
        0,
        -0.023957027122378349,
        0.99971222877502441,
        0.0012201437493786216,
        0,
        -0.025949403643608093,
        -0.0018419314874336123,
        0.99966156482696533,
        0,
        0.23830738663673401,
        0.058617163449525833,
        0.048347346484661102,
        1
      ],
      "name": "RootNode (model correction matrix)"
    },
    {
      "children": [
        3,
        4,
        5
      ],
      "name": "Flintlock Pistol.obj.cleaner.gles"
    },
    {
      "mesh": 0,
      "name": ""
    },
    {
      "mesh": 1,
      "name": ""
    },
    {
      "mesh": 2,
      "name": ""
    }
  ],
  "samplers": [
    {
      "magFilter": 9729,
      "minFilter": 9987,
      "wrapS": 10497,
      "wrapT": 10497
    }
  ],
  "scene": 0,
  "scenes": [
    {
      "name": "OSG_Scene",
      "nodes": [
        0
      ]
    }
  ],
  "textures": [
    {
      "sampler": 0,
      "source": 0
    },
    {
      "sampler": 0,
      "source": 1
    },
    {
      "sampler": 0,
      "source": 2
    }
  ]
}

